#!OML:ASF G:\ViconDB\ViconDB\414\test\team2\shane.ASF
:FULLY-SPECIFIED
:DEGREES
258
root 0.722092 16.7858 15.5418 -10.5619 7.5578 -9.05264
lowerback 6.63366 -0.865852 4.52638
upperback 3.87875 -0.871361 4.18624
thorax 0.288902 -0.401452 1.83323
lowerneck -13.6076 -2.39865 -7.65401
upperneck 18.3976 -3.69495 10.1285
head 8.27247 -1.29207 4.27741
rclavicle 3.39176e-015 -4.7112e-014
rhumerus -36.8682 -3.74557 -82.6907
rradius 22.961
rwrist 46.0641
rhand -29.0597 -14.448
rfingers 7.12502
rthumb -2.40936 -44.4142
lclavicle 3.39176e-015 -4.7112e-014
lhumerus -28.8454 -17.5232 97.3386
lradius 26.9344
lwrist -18.796
lhand -38.7374 5.45447
lfingers 7.12502
lthumb -11.7505 35.1049
rfemur 3.25962 -26.4631 22.7743
rtibia 27.6102
rfoot -22.4437 13.6232
rtoes -3.28714
lfemur 1.89716 5.04289 1.41859
ltibia 62.174
lfoot -15.6363 -14.4642
ltoes -12.6871
259
root 0.712524 16.7818 15.7142 -10.5385 7.33532 -8.76994
lowerback 6.71366 -0.667433 4.3414
upperback 3.91245 -0.614712 4.01974
thorax 0.278592 -0.274253 1.74837
lowerneck -13.6585 -2.3138 -7.20087
upperneck 18.5351 -3.6294 9.86307
head 8.30841 -1.25179 4.1191
rclavicle 1.80521e-014 -2.52457e-014
rhumerus -35.622 -2.76954 -83.9475
rradius 23.1815
rwrist 45.7544
rhand -29.2395 -14.5913
rfingers 7.12502
rthumb -2.58306 -44.5554
lclavicle 1.80521e-014 -2.52457e-014
lhumerus -29.5207 -16.6292 96.6407
lradius 25.9489
lwrist -20.3553
lhand -39.0738 6.02092
lfingers 7.12502
lthumb -12.0748 35.6525
rfemur 4.08871 -25.8121 22.4714
rtibia 27.3385
rfoot -22.7472 13.2282
rtoes -3.30113
lfemur 0.455511 5.70005 1.01279
ltibia 62.205
lfoot -16.782 -14.646
ltoes -12.7266
260
root 0.716085 16.7792 15.8873 -10.4963 7.02926 -8.3891
lowerback 6.83298 -0.399256 4.33258
upperback 3.92054 -0.251816 3.76263
thorax 0.219468 -0.0908951 1.4645
lowerneck -13.6375 -2.43789 -7.22302
upperneck 18.5959 -3.84435 10.0621
head 8.35012 -1.33513 4.1683
rclavicle -3.29237e-016 -1.45113e-014
rhumerus -34.3214 -2.85812 -84.6521
rradius 23.2963
rwrist 46.2431
rhand -28.9847 -14.0087
rfingers 7.12502
rthumb -2.33696 -43.9756
lclavicle -3.29237e-016 -1.45113e-014
lhumerus -30.4511 -16.9088 96.3871
lradius 25.362
lwrist -18.9927
lhand -39.148 6.32483
lfingers 7.12502
lthumb -12.1463 35.9522
rfemur 4.93667 -25.2321 21.9847
rtibia 27.063
rfoot -22.9806 13.1582
rtoes -3.12055
lfemur -0.95097 6.19195 0.392549
ltibia 61.9891
lfoot -17.7436 -14.7425
ltoes -11.9
261
root 0.712417 16.775 16.0597 -10.484 6.74347 -8.24644
lowerback 7.03446 -0.176672 4.3427
upperback 3.88403 0.0603136 3.62989
thorax 0.071821 0.064549 1.30135
lowerneck -13.5947 -2.45038 -6.94644
upperneck 18.7056 -3.90484 9.92461
head 8.37703 -1.35687 4.06912
rclavicle -3.55949e-015 4.96962e-015
rhumerus -33.2262 -1.13547 -86.075
rradius 23.6845
rwrist 44.866
rhand -29.177 -14.3601
rfingers 7.12502
rthumb -2.52264 -44.325
lclavicle -3.55949e-015 4.96962e-015
lhumerus -31.2422 -16.3719 95.7914
lradius 24.6048
lwrist -18.9083
lhand -39.0731 6.43795
lfingers 7.12502
lthumb -12.0741 36.0696
rfemur 5.70356 -24.4988 21.8805
rtibia 26.8523
rfoot -23.2947 12.6694
rtoes -3.41915
lfemur -2.31233 6.70865 0.0478688
ltibia 61.5172
lfoot -18.9348 -15.0839
ltoes -13.1712
262
root 0.71786 16.7678 16.2309 -10.463 6.46111 -7.89057
lowerback 7.2963 0.0568212 4.30283
upperback 3.82202 0.387996 3.41441
thorax -0.133701 0.226565 1.07736
lowerneck -13.5848 -2.48191 -6.91169
upperneck 18.8847 -3.99395 10.0378
head 8.44547 -1.38306 4.09614
rclavicle -2.20216e-014 2.20651e-014
rhumerus -32.0791 -0.708695 -86.967
rradius 23.946
rwrist 44.8127
rhand -29.2546 -14.7438
rfingers 7.12502
rthumb -2.59759 -44.7078
lclavicle -2.20216e-014 2.20651e-014
lhumerus -32.1726 -16.1002 95.2496
lradius 23.9133
lwrist -18.7854
lhand -38.8561 6.95914
lfingers 7.12502
lthumb -11.8649 36.603
rfemur 6.52372 -23.9093 21.4466
rtibia 26.6155
rfoot -23.6114 12.3086
rtoes -4.30903
lfemur -3.60085 7.06658 -0.640663
ltibia 60.8136
lfoot -19.9976 -15.2521
ltoes -13.6733
263
root 0.728436 16.7608 16.4037 -10.4638 6.05081 -7.71373
lowerback 7.50329 0.311322 4.48239
upperback 3.77519 0.752987 3.26734
thorax -0.287289 0.409974 0.796853
lowerneck -13.2463 -2.5311 -6.77065
upperneck 18.7198 -4.08315 9.9678
head 8.33241 -1.43242 4.03418
rclavicle 1.8605e-015 -3.83654e-014
rhumerus -31.061 0.811529 -88.0744
rradius 24.3983
rwrist 43.2386
rhand -29.2623 -14.7647
rfingers 7.12502
rthumb -2.60504 -44.7285
lclavicle 1.8605e-015 -3.83654e-014
lhumerus -33.0463 -15.4138 94.5503
lradius 23.1117
lwrist -19.05
lhand -38.8 6.93957
lfingers 7.12502
lthumb -11.8108 36.5865
rfemur 7.393 -23.5129 21.1499
rtibia 26.3253
rfoot -24.0151 12.0588
rtoes -5.342
lfemur -4.80924 7.36001 -1.16856
ltibia 59.8633
lfoot -20.6953 -15.3055
ltoes -13.3951
264
root 0.729889 16.7523 16.5702 -10.3866 5.89167 -7.63003
lowerback 7.73177 0.480291 4.54972
upperback 3.70065 1.00078 3.16985
thorax -0.483134 0.531672 0.636692
lowerneck -13.3375 -2.5395 -6.61972
upperneck 18.885 -4.13122 9.94673
head 8.40569 -1.44137 3.99917
rclavicle 7.04133e-015 -1.39149e-015
rhumerus -29.8735 1.52889 -88.9357
rradius 24.762
rwrist 42.4886
rhand -29.2226 -14.8661
rfingers 7.12502
rthumb -2.56672 -44.8304
lclavicle 7.04133e-015 -1.39149e-015
lhumerus -33.7844 -14.7283 93.7982
lradius 22.2464
lwrist -19.5164
lhand -38.8613 7.19305
lfingers 7.12502
lthumb -11.87 36.8366
rfemur 8.12234 -22.8868 21.149
rtibia 25.9611
rfoot -24.1304 11.5257
rtoes -5.37046
lfemur -6.16853 7.6366 -1.59533
ltibia 58.6782
lfoot -21.5263 -15.3456
ltoes -13.4249
265
root 0.740435 16.7498 16.7423 -10.3238 5.72107 -7.4975
lowerback 7.85108 0.657956 4.66596
upperback 3.66166 1.25304 3.01427
thorax -0.577588 0.65814 0.389206
lowerneck -13.2547 -2.57089 -6.28938
upperneck 18.8083 -4.20954 9.77666
head 8.362 -1.47402 3.8736
rclavicle -1.45517e-014 -3.12589e-014
rhumerus -28.8085 2.45783 -89.7384
rradius 25.0676
rwrist 42.3573
rhand -29.5541 -14.9725
rfingers 7.12502
rthumb -2.88688 -44.9327
lclavicle -1.45517e-014 -3.12589e-014
lhumerus -34.5064 -13.9121 92.8472
lradius 21.4272
lwrist -19.9107
lhand -38.6954 6.89094
lfingers 7.12502
lthumb -11.7099 36.5437
rfemur 8.95463 -22.3343 20.9879
rtibia 25.4964
rfoot -24.2873 11.2829
rtoes -4.88298
lfemur -7.39215 7.69774 -2.15294
ltibia 57.2224
lfoot -22.1703 -15.1549
ltoes -12.9932
266
root 0.749782 16.7485 16.9116 -10.2017 5.32468 -7.33321
lowerback 8.03562 0.897489 4.7799
upperback 3.58963 1.59391 2.8943
thorax -0.738026 0.826615 0.17001
lowerneck -13.2374 -2.59927 -6.34505
upperneck 18.8544 -4.28056 9.96574
head 8.38619 -1.49251 3.9411
rclavicle -2.98954e-014 -4.85035e-014
rhumerus -27.8289 4.30242 -90.7539
rradius 25.7434
rwrist 40.2156
rhand -29.6337 -15.4505
rfingers 7.12502
rthumb -2.96375 -45.4096
lclavicle -2.98954e-014 -4.85035e-014
lhumerus -35.3859 -13.4608 92.2015
lradius 20.7144
lwrist -20.0798
lhand -38.2712 7.27103
lfingers 7.12502
lthumb -11.3008 36.9466
rfemur 9.78182 -21.8409 20.7713
rtibia 24.9025
rfoot -24.3455 11.2241
rtoes -4.76879
lfemur -8.50734 8.13021 -2.69327
ltibia 55.5371
lfoot -22.871 -14.736
ltoes -13.6249
267
root 0.761238 16.7512 17.0869 -10.0321 5.02946 -7.03799
lowerback 8.0933 1.10468 4.73686
upperback 3.51308 1.87003 2.69331
thorax -0.835325 0.962544 -0.0387325
lowerneck -13.1401 -2.59964 -6.20864
upperneck 18.8004 -4.32054 10.0127
head 8.35233 -1.50006 3.92843
rclavicle 2.02896e-014 2.87492e-014
rhumerus -26.8907 5.63425 -91.6228
rradius 26.2877
rwrist 39.236
rhand -29.5272 -15.1504
rfingers 7.12502
rthumb -2.86082 -45.111
lclavicle 2.02896e-014 2.87492e-014
lhumerus -36.2373 -12.9117 91.2881
lradius 20.0397
lwrist -20.1097
lhand -38.5641 7.34182
lfingers 7.12502
lthumb -11.5833 37.0017
rfemur 10.6723 -21.4974 20.3594
rtibia 24.1636
rfoot -24.2989 11.2813
rtoes -4.7894
lfemur -9.53572 8.23883 -3.39341
ltibia 53.5721
lfoot -23.2389 -14.291
ltoes -13.1256
268
root 0.78112 16.7566 17.2626 -9.99591 4.79127 -6.99141
lowerback 8.22018 1.25808 4.96112
upperback 3.5004 2.09863 2.62686
thorax -0.89913 1.0775 -0.254694
lowerneck -13.1158 -2.63854 -6.11314
upperneck 18.7346 -4.36629 9.89563
head 8.3255 -1.52765 3.86529
rclavicle 7.58127e-014 4.45526e-014
rhumerus -25.9906 7.14565 -92.2369
rradius 26.9566
rwrist 38.2295
rhand -29.5106 -14.953
rfingers 7.12502
rthumb -2.8448 -44.9138
lclavicle 7.58127e-014 4.45526e-014
lhumerus -37.1494 -12.4424 90.6228
lradius 19.4614
lwrist -20.3076
lhand -38.421 7.86833
lfingers 7.12502
lthumb -11.4453 37.5359
rfemur 11.7634 -21.2922 20.0692
rtibia 23.2271
rfoot -24.1593 11.4035
rtoes -5.3378
lfemur -10.4229 8.32074 -3.88285
ltibia 51.4348
lfoot -23.6452 -13.6617
ltoes -13.6106
269
root 0.784015 16.7654 17.4497 -9.79019 4.51693 -6.82987
lowerback 8.08157 1.51076 4.90022
upperback 3.46176 2.41852 2.45716
thorax -0.845177 1.23819 -0.418805
lowerneck -13.2288 -2.66578 -5.8729
upperneck 18.8327 -4.47464 9.96639
head 8.38588 -1.54955 3.83788
rclavicle -7.35938e-014 -4.35338e-014
rhumerus -25.0335 7.96705 -92.8548
rradius 27.4232
rwrist 37.7555
rhand -29.7901 -15.2764
rfingers 7.12502
rthumb -3.11472 -45.2334
lclavicle -7.35938e-014 -4.35338e-014
lhumerus -38.1445 -12.6674 90.0524
lradius 18.9674
lwrist -19.5933
lhand -38.2482 7.97875
lfingers 7.12502
lthumb -11.2787 37.6555
rfemur 12.706 -20.4028 20.1219
rtibia 22.1018
rfoot -23.8736 10.9639
rtoes -5.6777
lfemur -11.3477 8.70297 -4.34257
ltibia 49.0719
lfoot -23.9603 -13.2124
ltoes -13.8144
270
root 0.814714 16.7717 17.6265 -9.67508 4.25339 -6.77315
lowerback 8.16786 1.63907 5.35949
upperback 3.40586 2.62773 2.24904
thorax -0.909391 1.34517 -0.909602
lowerneck -13.2431 -2.63212 -5.47984
upperneck 18.864 -4.4785 9.79043
head 8.38711 -1.53896 3.71053
rclavicle -3.95861e-014 -7.30534e-015
rhumerus -24.2237 9.66001 -93.6122
rradius 28.1454
rwrist 36.5361
rhand -29.7909 -15.3796
rfingers 7.12502
rthumb -3.11553 -45.3365
lclavicle -3.95861e-014 -7.30534e-015
lhumerus -39.055 -12.2307 89.1198
lradius 18.368
lwrist -19.8465
lhand -38.4029 8.03193
lfingers 7.12502
lthumb -11.4278 37.7005
rfemur 14.0545 -20.819 19.4689
rtibia 20.6205
rfoot -23.5246 11.7363
rtoes -6.2951
lfemur -12.1007 8.6349 -4.93687
ltibia 46.561
lfoot -24.2415 -12.533
ltoes -13.5553
